# This file uses centimeters as units for non-parametric coordinates.

mtllib collect.mtl
g default
v 0.070711 -0.857762 -0.518887
v 0.000000 -0.844408 -0.544955
v -0.070711 -0.857762 -0.518887
v -0.100000 -0.890003 -0.455954
v -0.070711 -0.922244 -0.393021
v 0.000000 -0.935599 -0.366954
v 0.070711 -0.922244 -0.393021
v 0.100000 -0.890003 -0.455954
v 0.070711 0.922244 0.393021
v 0.000000 0.935599 0.366954
v -0.070711 0.922244 0.393021
v -0.100000 0.890003 0.455954
v -0.070711 0.857762 0.518887
v 0.000000 0.844408 0.544955
v 0.070711 0.857762 0.518887
v 0.100000 0.890003 0.455954
v 0.000000 -0.890003 -0.455954
v 0.000000 0.890003 0.455954
v 0.070711 -0.700681 -0.438413
v 0.000000 -0.687327 -0.464481
v -0.070711 -0.700681 -0.438413
v -0.100000 -0.732922 -0.375481
v -0.070711 -0.765163 -0.312548
v 0.000000 -0.778517 -0.286480
v 0.070711 -0.765163 -0.312548
v 0.100000 -0.732922 -0.375481
v 0.087898 -0.687418 -0.450930
v 0.124307 -0.727496 -0.372700
v 0.087898 -0.767573 -0.294471
v -0.000000 -0.784174 -0.262067
v -0.087898 -0.767573 -0.294471
v -0.124307 -0.727496 -0.372700
v -0.087898 -0.687418 -0.450930
v -0.000000 -0.670817 -0.483334
v 0.070711 -0.689190 -0.432526
v 0.100000 -0.721431 -0.369593
v 0.070711 -0.753672 -0.306661
v 0.000000 -0.767026 -0.280593
v -0.070711 -0.753672 -0.306661
v -0.100000 -0.721431 -0.369593
v -0.070711 -0.689190 -0.432526
v 0.000000 -0.675835 -0.458594
v 0.070711 -0.308487 -0.237490
v 0.100000 -0.340728 -0.174557
v 0.070711 -0.372969 -0.111624
v 0.000000 -0.386323 -0.085557
v -0.070711 -0.372969 -0.111624
v -0.100000 -0.340728 -0.174557
v -0.070711 -0.308487 -0.237490
v 0.000000 -0.295133 -0.263557
v 0.088122 -0.294055 -0.249660
v 0.124624 -0.334234 -0.171230
v 0.088122 -0.374414 -0.092801
v -0.000000 -0.391057 -0.060315
v -0.088122 -0.374414 -0.092801
v -0.124624 -0.334234 -0.171230
v -0.088122 -0.294055 -0.249660
v -0.000000 -0.277412 -0.282146
v 0.070711 -0.295817 -0.230999
v 0.100000 -0.328058 -0.168066
v 0.070711 -0.360299 -0.105134
v 0.000000 -0.373654 -0.079066
v -0.070711 -0.360299 -0.105134
v -0.100000 -0.328058 -0.168066
v -0.070711 -0.295817 -0.230999
v 0.000000 -0.282463 -0.257067
v 0.070711 0.107134 -0.024564
v 0.100000 0.074893 0.038368
v 0.070711 0.042652 0.101301
v 0.000000 0.029298 0.127369
v -0.070711 0.042652 0.101301
v -0.100000 0.074893 0.038368
v -0.070711 0.107134 -0.024564
v 0.000000 0.120489 -0.050632
v 0.085026 0.118762 -0.034692
v 0.120245 0.079994 0.040982
v 0.085026 0.041226 0.116655
v -0.000000 0.025168 0.148000
v -0.085026 0.041226 0.116655
v -0.120245 0.079994 0.040982
v -0.085026 0.118762 -0.034692
v -0.000000 0.134821 -0.066037
v 0.070711 0.119282 -0.018341
v 0.100000 0.087041 0.044592
v 0.070711 0.054800 0.107524
v 0.000000 0.041445 0.133592
v -0.070711 0.054800 0.107524
v -0.100000 0.087041 0.044592
v -0.070711 0.119282 -0.018341
v 0.000000 0.132636 -0.044409
v 0.070711 0.596425 0.226102
v 0.100000 0.564184 0.289035
v 0.070711 0.531944 0.351968
v 0.000000 0.518589 0.378035
v -0.070711 0.531944 0.351968
v -0.100000 0.564184 0.289035
v -0.070711 0.596425 0.226102
v 0.000000 0.609780 0.200035
v 0.094985 0.613179 0.207411
v 0.134329 0.569870 0.291948
v 0.094985 0.526561 0.376485
v -0.000000 0.508622 0.411501
v -0.094985 0.526561 0.376485
v -0.134329 0.569870 0.291948
v -0.094985 0.613179 0.207411
v -0.000000 0.631118 0.172394
v 0.070711 0.608172 0.232120
v 0.100000 0.575931 0.295053
v 0.070711 0.543690 0.357986
v 0.000000 0.530336 0.384053
v -0.070711 0.543690 0.357986
v -0.100000 0.575931 0.295053
v -0.070711 0.608172 0.232120
v 0.000000 0.621527 0.206053
vt 0.610485 0.045765
vt 0.500000 0.000000
vt 0.389515 0.045765
vt 0.343750 0.156250
vt 0.389515 0.266735
vt 0.500000 0.312500
vt 0.610485 0.266735
vt 0.656250 0.156250
vt 0.375000 0.312500
vt 0.406250 0.312500
vt 0.437500 0.312500
vt 0.468750 0.312500
vt 0.500000 0.312500
vt 0.531250 0.312500
vt 0.562500 0.312500
vt 0.593750 0.312500
vt 0.625000 0.312500
vt 0.375000 0.688440
vt 0.406250 0.688440
vt 0.437500 0.688440
vt 0.468750 0.688440
vt 0.500000 0.688440
vt 0.531250 0.688440
vt 0.562500 0.688440
vt 0.593750 0.688440
vt 0.625000 0.688440
vt 0.610485 0.733265
vt 0.500000 0.687500
vt 0.389515 0.733265
vt 0.343750 0.843750
vt 0.389515 0.954235
vt 0.500000 1.000000
vt 0.610485 0.954235
vt 0.656250 0.843750
vt 0.500000 0.150000
vt 0.500000 0.837500
vt 0.625000 0.344967
vt 0.375000 0.344967
vt 0.406250 0.344967
vt 0.437500 0.344967
vt 0.468750 0.344967
vt 0.500000 0.344967
vt 0.531250 0.344967
vt 0.562500 0.344967
vt 0.593750 0.344967
vt 0.625000 0.346822
vt 0.375000 0.346822
vt 0.593750 0.346822
vt 0.562500 0.346822
vt 0.531250 0.346822
vt 0.500000 0.346822
vt 0.468750 0.346822
vt 0.437500 0.346822
vt 0.406250 0.346822
vt 0.625000 0.348340
vt 0.375000 0.348340
vt 0.593750 0.348340
vt 0.562500 0.348340
vt 0.531250 0.348340
vt 0.500000 0.348340
vt 0.468750 0.348340
vt 0.437500 0.348340
vt 0.406250 0.348340
vt 0.625000 0.428508
vt 0.375000 0.428508
vt 0.593750 0.428508
vt 0.562500 0.428508
vt 0.531250 0.428508
vt 0.500000 0.428508
vt 0.468750 0.428508
vt 0.437500 0.428508
vt 0.406250 0.428508
vt 0.625000 0.429879
vt 0.375000 0.429879
vt 0.593750 0.429879
vt 0.562500 0.429879
vt 0.531250 0.429879
vt 0.500000 0.429879
vt 0.468750 0.429879
vt 0.437500 0.429879
vt 0.406250 0.429879
vt 0.625000 0.432052
vt 0.375000 0.432052
vt 0.593750 0.432052
vt 0.562500 0.432052
vt 0.531250 0.432052
vt 0.500000 0.432052
vt 0.468750 0.432052
vt 0.437500 0.432052
vt 0.406250 0.432052
vt 0.625000 0.515303
vt 0.375000 0.515303
vt 0.593750 0.515303
vt 0.562500 0.515303
vt 0.531250 0.515303
vt 0.500000 0.515303
vt 0.468750 0.515303
vt 0.437500 0.515303
vt 0.406250 0.515303
vt 0.625000 0.517365
vt 0.375000 0.517365
vt 0.593750 0.517365
vt 0.562500 0.517365
vt 0.531250 0.517365
vt 0.500000 0.517365
vt 0.468750 0.517365
vt 0.437500 0.517365
vt 0.406250 0.517365
vt 0.625000 0.519837
vt 0.375000 0.519837
vt 0.593750 0.519837
vt 0.562500 0.519837
vt 0.531250 0.519837
vt 0.500000 0.519837
vt 0.468750 0.519837
vt 0.437500 0.519837
vt 0.406250 0.519837
vt 0.625000 0.617993
vt 0.375000 0.617993
vt 0.593750 0.617993
vt 0.562500 0.617993
vt 0.531250 0.617993
vt 0.500000 0.617993
vt 0.468750 0.617993
vt 0.437500 0.617993
vt 0.406250 0.617993
vt 0.625000 0.620827
vt 0.375000 0.620827
vt 0.593750 0.620827
vt 0.562500 0.620827
vt 0.531250 0.620827
vt 0.500000 0.620827
vt 0.468750 0.620827
vt 0.437500 0.620827
vt 0.406250 0.620827
vt 0.625000 0.623017
vt 0.375000 0.623017
vt 0.593750 0.623017
vt 0.562500 0.623017
vt 0.531250 0.623017
vt 0.500000 0.623017
vt 0.468750 0.623017
vt 0.437500 0.623017
vt 0.406250 0.623017
vn 0.377263 0.266015 -0.887079
vn 0.377263 0.266015 -0.887079
vn 0.382685 0.421289 -0.822233
vn 0.382685 0.421289 -0.822233
vn -0.377263 0.266014 -0.887079
vn -0.377263 0.266014 -0.887079
vn -0.382684 0.421289 -0.822234
vn -0.382684 0.421289 -0.822234
vn -0.910793 0.022749 -0.412235
vn -0.910793 0.022749 -0.412235
vn -0.923880 0.174529 -0.340567
vn -0.923880 0.174529 -0.340567
vn -0.910793 -0.321280 0.259296
vn -0.910793 -0.321280 0.259296
vn -0.923880 -0.174443 0.340611
vn -0.923880 -0.174443 0.340611
vn -0.377263 -0.564546 0.734139
vn -0.377263 -0.564546 0.734139
vn -0.382685 -0.421204 0.822277
vn -0.382685 -0.421204 0.822277
vn 0.377263 -0.564546 0.734139
vn 0.377263 -0.564546 0.734140
vn 0.382686 -0.421204 0.822277
vn 0.382686 -0.421204 0.822277
vn 0.910794 -0.321280 0.259296
vn 0.910794 -0.321280 0.259296
vn 0.923880 -0.174443 0.340610
vn 0.923880 -0.174443 0.340610
vn 0.910793 0.022749 -0.412235
vn 0.910793 0.022749 -0.412235
vn 0.923880 0.174529 -0.340567
vn 0.923880 0.174529 -0.340567
vn 0.000000 -0.890003 -0.455954
vn 0.000000 -0.890003 -0.455954
vn 0.000000 -0.890003 -0.455954
vn 0.000000 -0.890003 -0.455954
vn 0.000000 -0.890003 -0.455954
vn 0.000000 -0.890003 -0.455954
vn 0.000000 -0.890003 -0.455954
vn 0.000000 -0.890003 -0.455954
vn 0.000000 -0.890003 -0.455954
vn 0.000000 0.890003 0.455954
vn 0.000000 0.890003 0.455954
vn 0.000000 0.890003 0.455954
vn 0.000000 0.890003 0.455954
vn 0.000000 0.890003 0.455954
vn 0.000000 0.890003 0.455954
vn 0.000000 0.890003 0.455954
vn 0.000000 0.890003 0.455954
vn 0.000000 0.890003 0.455954
vn 0.382683 0.421247 -0.822256
vn 0.382683 0.421247 -0.822256
vn -0.382683 0.421247 -0.822256
vn -0.382683 0.421247 -0.822256
vn -0.923880 0.174486 -0.340589
vn -0.923880 0.174486 -0.340589
vn -0.923880 -0.174486 0.340589
vn -0.923880 -0.174486 0.340589
vn -0.382683 -0.421247 0.822256
vn -0.382683 -0.421247 0.822256
vn 0.382683 -0.421247 0.822256
vn 0.382683 -0.421247 0.822256
vn 0.923880 -0.174486 0.340589
vn 0.923880 -0.174486 0.340589
vn 0.923879 0.174486 -0.340590
vn 0.923879 0.174486 -0.340590
vn 0.921495 0.237937 -0.306973
vn 0.921495 0.237937 -0.306973
vn 0.921495 -0.110134 0.372448
vn 0.921495 -0.110134 0.372448
vn 0.381696 -0.356258 0.852871
vn 0.381696 -0.356258 0.852871
vn -0.381696 -0.356258 0.852871
vn -0.381696 -0.356258 0.852871
vn -0.921495 -0.110134 0.372447
vn -0.921495 -0.110134 0.372447
vn -0.921495 0.237937 -0.306973
vn -0.921495 0.237937 -0.306973
vn -0.381696 0.484061 -0.787397
vn -0.381696 0.484061 -0.787397
vn 0.381696 0.484061 -0.787397
vn 0.381696 0.484061 -0.787397
vn 0.921434 0.109304 -0.372844
vn 0.921434 0.109304 -0.372844
vn 0.921434 -0.238744 0.306531
vn 0.921434 -0.238744 0.306531
vn 0.381670 -0.484851 0.786923
vn 0.381670 -0.484851 0.786923
vn -0.381670 -0.484851 0.786923
vn -0.381670 -0.484851 0.786923
vn -0.921434 -0.238744 0.306531
vn -0.921434 -0.238744 0.306531
vn -0.921434 0.109304 -0.372844
vn -0.921434 0.109304 -0.372844
vn -0.381670 0.355412 -0.853235
vn -0.381670 0.355412 -0.853235
vn 0.381670 0.355412 -0.853235
vn 0.381670 0.355412 -0.853235
vn 0.923880 0.174465 -0.340600
vn 0.923880 0.174465 -0.340600
vn 0.923880 -0.174507 0.340578
vn 0.923880 -0.174507 0.340578
vn 0.382683 -0.421268 0.822245
vn 0.382683 -0.421268 0.822245
vn -0.382684 -0.421268 0.822245
vn -0.382684 -0.421268 0.822245
vn -0.923880 -0.174507 0.340578
vn -0.923880 -0.174507 0.340578
vn -0.923880 0.174465 -0.340600
vn -0.923880 0.174465 -0.340600
vn -0.382684 0.421226 -0.822266
vn -0.382684 0.421226 -0.822266
vn 0.382684 0.421226 -0.822266
vn 0.382684 0.421226 -0.822266
vn 0.921685 0.235381 -0.308372
vn 0.921685 0.235381 -0.308372
vn 0.921685 -0.112763 0.371189
vn 0.921685 -0.112763 0.371189
vn 0.381774 -0.358937 0.851712
vn 0.381774 -0.358937 0.851712
vn -0.381774 -0.358937 0.851711
vn -0.381774 -0.358937 0.851711
vn -0.921685 -0.112763 0.371189
vn -0.921685 -0.112763 0.371189
vn -0.921685 0.235380 -0.308371
vn -0.921685 0.235380 -0.308371
vn -0.381774 0.481555 -0.788894
vn -0.381774 0.481555 -0.788894
vn 0.381774 0.481555 -0.788894
vn 0.381774 0.481555 -0.788894
vn 0.922440 0.124550 -0.365502
vn 0.922440 0.124550 -0.365502
vn 0.922440 -0.223878 0.314615
vn 0.922440 -0.223878 0.314615
vn 0.382087 -0.470255 0.795531
vn 0.382087 -0.470255 0.795531
vn -0.382087 -0.470255 0.795531
vn -0.382087 -0.470255 0.795531
vn -0.922440 -0.223878 0.314615
vn -0.922440 -0.223878 0.314615
vn -0.922440 0.124550 -0.365502
vn -0.922440 0.124550 -0.365502
vn -0.382087 0.370926 -0.846418
vn -0.382087 0.370926 -0.846418
vn 0.382087 0.370926 -0.846418
vn 0.382087 0.370926 -0.846418
vn 0.923880 0.174641 -0.340510
vn 0.923880 0.174641 -0.340510
vn 0.923880 -0.174331 0.340669
vn 0.923880 -0.174331 0.340669
vn 0.382683 -0.421091 0.822336
vn 0.382683 -0.421091 0.822336
vn -0.382683 -0.421091 0.822336
vn -0.382683 -0.421091 0.822336
vn -0.923880 -0.174330 0.340669
vn -0.923880 -0.174331 0.340669
vn -0.923880 0.174642 -0.340510
vn -0.923880 0.174642 -0.340510
vn -0.382683 0.421402 -0.822176
vn -0.382683 0.421402 -0.822176
vn 0.382683 0.421402 -0.822176
vn 0.382683 0.421403 -0.822176
vn 0.922858 0.216132 -0.318779
vn 0.922858 0.216132 -0.318779
vn 0.922858 -0.132455 0.361647
vn 0.922858 -0.132455 0.361647
vn 0.382260 -0.378943 0.842781
vn 0.382260 -0.378943 0.842781
vn -0.382260 -0.378943 0.842781
vn -0.382260 -0.378943 0.842781
vn -0.922858 -0.132455 0.361647
vn -0.922858 -0.132455 0.361647
vn -0.922858 0.216132 -0.318779
vn -0.922858 0.216132 -0.318779
vn -0.382260 0.462619 -0.799913
vn -0.382260 0.462619 -0.799913
vn 0.382260 0.462619 -0.799913
vn 0.382260 0.462619 -0.799913
vn 0.920548 0.098344 -0.378047
vn 0.920548 0.098344 -0.378047
vn 0.920548 -0.249370 0.300675
vn 0.920548 -0.249370 0.300675
vn 0.381303 -0.495241 0.780605
vn 0.381303 -0.495241 0.780605
vn -0.381304 -0.495241 0.780605
vn -0.381304 -0.495241 0.780605
vn -0.920548 -0.249370 0.300675
vn -0.920548 -0.249370 0.300675
vn -0.920548 0.098344 -0.378047
vn -0.920548 0.098344 -0.378047
vn -0.381303 0.344215 -0.857977
vn -0.381303 0.344215 -0.857977
vn 0.381303 0.344215 -0.857977
vn 0.381303 0.344215 -0.857977
vn 0.923880 0.174504 -0.340580
vn 0.923880 0.174504 -0.340580
vn 0.923880 -0.174468 0.340597
vn 0.923880 -0.174468 0.340597
vn 0.382684 -0.421229 0.822265
vn 0.382684 -0.421229 0.822265
vn -0.382684 -0.421229 0.822264
vn -0.382684 -0.421229 0.822264
vn -0.923880 -0.174469 0.340598
vn -0.923880 -0.174469 0.340598
vn -0.923880 0.174504 -0.340580
vn -0.923880 0.174504 -0.340580
vn -0.382685 0.421264 -0.822246
vn -0.382685 0.421264 -0.822246
vn 0.382684 0.421264 -0.822246
vn 0.382684 0.421264 -0.822246
vn 0.916402 0.286077 -0.279941
vn 0.916402 0.286077 -0.279941
vn 0.916402 -0.060071 0.395725
vn 0.916402 -0.060071 0.395725
vn 0.379586 -0.304835 0.873493
vn 0.379586 -0.304835 0.873493
vn -0.379586 -0.304835 0.873493
vn -0.379586 -0.304835 0.873493
vn -0.916402 -0.060071 0.395725
vn -0.916402 -0.060071 0.395725
vn -0.916402 0.286077 -0.279941
vn -0.916402 0.286077 -0.279941
vn -0.379586 0.530840 -0.757709
vn -0.379586 0.530840 -0.757709
vn 0.379586 0.530840 -0.757709
vn 0.379586 0.530840 -0.757709
vn 0.923880 0.174486 -0.340590
vn 0.923880 0.174486 -0.340590
vn 0.923880 -0.174486 0.340589
vn 0.923880 -0.174486 0.340589
vn 0.382683 -0.421247 0.822256
vn 0.382683 -0.421247 0.822256
vn -0.382683 -0.421247 0.822256
vn -0.382683 -0.421247 0.822256
vn -0.923880 -0.174486 0.340589
vn -0.923880 -0.174486 0.340589
vn -0.923880 0.174486 -0.340589
vn -0.923880 0.174486 -0.340589
vn -0.382683 0.421247 -0.822256
vn -0.382683 0.421247 -0.822256
vn 0.382683 0.421247 -0.822256
vn 0.382683 0.421247 -0.822256
s 1
g pCylinder24
usemtl initialShadingGroup
f 19/38/1 20/39/2 34/54/3 27/47/4
s 2
f 20/39/5 21/40/6 33/53/7 34/54/8
s 3
f 21/40/9 22/41/10 32/52/11 33/53/12
s 4
f 22/41/13 23/42/14 31/51/15 32/52/16
s 5
f 23/42/17 24/43/18 30/50/19 31/51/20
s 6
f 24/43/21 25/44/22 29/49/23 30/50/24
s 7
f 25/44/25 26/45/26 28/48/27 29/49/28
s 8
f 26/45/29 19/37/30 27/46/31 28/48/32
s 9
f 2/2/33 1/1/34 17/35/35
f 3/3/36 2/2/33 17/35/35
f 4/4/37 3/3/36 17/35/35
f 5/5/38 4/4/37 17/35/35
f 6/6/39 5/5/38 17/35/35
f 7/7/40 6/6/39 17/35/35
f 8/8/41 7/7/40 17/35/35
f 1/1/34 8/8/41 17/35/35
s 10
f 9/33/42 10/32/43 18/36/44
f 10/32/43 11/31/45 18/36/44
f 11/31/45 12/30/46 18/36/44
f 12/30/46 13/29/47 18/36/44
f 13/29/47 14/28/48 18/36/44
f 14/28/48 15/27/49 18/36/44
f 15/27/49 16/34/50 18/36/44
f 16/34/50 9/33/42 18/36/44
s 1
f 1/9/51 2/10/52 20/39/2 19/38/1
s 2
f 2/10/53 3/11/54 21/40/6 20/39/5
s 3
f 3/11/55 4/12/56 22/41/10 21/40/9
s 4
f 4/12/57 5/13/58 23/42/14 22/41/13
s 5
f 5/13/59 6/14/60 24/43/18 23/42/17
s 6
f 6/14/61 7/15/62 25/44/22 24/43/21
s 7
f 7/15/63 8/16/64 26/45/26 25/44/25
s 8
f 8/16/65 1/17/66 19/37/30 26/45/29
f 28/48/32 27/46/31 35/55/67 36/57/68
s 7
f 29/49/28 28/48/27 36/57/69 37/58/70
s 6
f 30/50/24 29/49/23 37/58/71 38/59/72
s 5
f 31/51/20 30/50/19 38/59/73 39/60/74
s 4
f 32/52/16 31/51/15 39/60/75 40/61/76
s 3
f 33/53/12 32/52/11 40/61/77 41/62/78
s 2
f 34/54/8 33/53/7 41/62/79 42/63/80
s 1
f 27/47/4 34/54/3 42/63/81 35/56/82
s 8
f 36/57/68 35/55/67 43/64/83 44/66/84
s 7
f 37/58/70 36/57/69 44/66/85 45/67/86
s 6
f 38/59/72 37/58/71 45/67/87 46/68/88
s 5
f 39/60/74 38/59/73 46/68/89 47/69/90
s 4
f 40/61/76 39/60/75 47/69/91 48/70/92
s 3
f 41/62/78 40/61/77 48/70/93 49/71/94
s 2
f 42/63/80 41/62/79 49/71/95 50/72/96
s 1
f 35/56/82 42/63/81 50/72/97 43/65/98
s 8
f 44/66/84 43/64/83 51/73/99 52/75/100
s 7
f 45/67/86 44/66/85 52/75/101 53/76/102
s 6
f 46/68/88 45/67/87 53/76/103 54/77/104
s 5
f 47/69/90 46/68/89 54/77/105 55/78/106
s 4
f 48/70/92 47/69/91 55/78/107 56/79/108
s 3
f 49/71/94 48/70/93 56/79/109 57/80/110
s 2
f 50/72/96 49/71/95 57/80/111 58/81/112
s 1
f 43/65/98 50/72/97 58/81/113 51/74/114
s 8
f 52/75/100 51/73/99 59/82/115 60/84/116
s 7
f 53/76/102 52/75/101 60/84/117 61/85/118
s 6
f 54/77/104 53/76/103 61/85/119 62/86/120
s 5
f 55/78/106 54/77/105 62/86/121 63/87/122
s 4
f 56/79/108 55/78/107 63/87/123 64/88/124
s 3
f 57/80/110 56/79/109 64/88/125 65/89/126
s 2
f 58/81/112 57/80/111 65/89/127 66/90/128
s 1
f 51/74/114 58/81/113 66/90/129 59/83/130
s 8
f 60/84/116 59/82/115 67/91/131 68/93/132
s 7
f 61/85/118 60/84/117 68/93/133 69/94/134
s 6
f 62/86/120 61/85/119 69/94/135 70/95/136
s 5
f 63/87/122 62/86/121 70/95/137 71/96/138
s 4
f 64/88/124 63/87/123 71/96/139 72/97/140
s 3
f 65/89/126 64/88/125 72/97/141 73/98/142
s 2
f 66/90/128 65/89/127 73/98/143 74/99/144
s 1
f 59/83/130 66/90/129 74/99/145 67/92/146
s 8
f 68/93/132 67/91/131 75/100/147 76/102/148
s 7
f 69/94/134 68/93/133 76/102/149 77/103/150
s 6
f 70/95/136 69/94/135 77/103/151 78/104/152
s 5
f 71/96/138 70/95/137 78/104/153 79/105/154
s 4
f 72/97/140 71/96/139 79/105/155 80/106/156
s 3
f 73/98/142 72/97/141 80/106/157 81/107/158
s 2
f 74/99/144 73/98/143 81/107/159 82/108/160
s 1
f 67/92/146 74/99/145 82/108/161 75/101/162
s 8
f 76/102/148 75/100/147 83/109/163 84/111/164
s 7
f 77/103/150 76/102/149 84/111/165 85/112/166
s 6
f 78/104/152 77/103/151 85/112/167 86/113/168
s 5
f 79/105/154 78/104/153 86/113/169 87/114/170
s 4
f 80/106/156 79/105/155 87/114/171 88/115/172
s 3
f 81/107/158 80/106/157 88/115/173 89/116/174
s 2
f 82/108/160 81/107/159 89/116/175 90/117/176
s 1
f 75/101/162 82/108/161 90/117/177 83/110/178
s 8
f 84/111/164 83/109/163 91/118/179 92/120/180
s 7
f 85/112/166 84/111/165 92/120/181 93/121/182
s 6
f 86/113/168 85/112/167 93/121/183 94/122/184
s 5
f 87/114/170 86/113/169 94/122/185 95/123/186
s 4
f 88/115/172 87/114/171 95/123/187 96/124/188
s 3
f 89/116/174 88/115/173 96/124/189 97/125/190
s 2
f 90/117/176 89/116/175 97/125/191 98/126/192
s 1
f 83/110/178 90/117/177 98/126/193 91/119/194
s 8
f 92/120/180 91/118/179 99/127/195 100/129/196
s 7
f 93/121/182 92/120/181 100/129/197 101/130/198
s 6
f 94/122/184 93/121/183 101/130/199 102/131/200
s 5
f 95/123/186 94/122/185 102/131/201 103/132/202
s 4
f 96/124/188 95/123/187 103/132/203 104/133/204
s 3
f 97/125/190 96/124/189 104/133/205 105/134/206
s 2
f 98/126/192 97/125/191 105/134/207 106/135/208
s 1
f 91/119/194 98/126/193 106/135/209 99/128/210
s 8
f 100/129/196 99/127/195 107/136/211 108/138/212
s 7
f 101/130/198 100/129/197 108/138/213 109/139/214
s 6
f 102/131/200 101/130/199 109/139/215 110/140/216
s 5
f 103/132/202 102/131/201 110/140/217 111/141/218
s 4
f 104/133/204 103/132/203 111/141/219 112/142/220
s 3
f 105/134/206 104/133/205 112/142/221 113/143/222
s 2
f 106/135/208 105/134/207 113/143/223 114/144/224
s 1
f 99/128/210 106/135/209 114/144/225 107/137/226
s 8
f 108/138/212 107/136/211 9/26/227 16/25/228
s 7
f 109/139/214 108/138/213 16/25/229 15/24/230
s 6
f 110/140/216 109/139/215 15/24/231 14/23/232
s 5
f 111/141/218 110/140/217 14/23/233 13/22/234
s 4
f 112/142/220 111/141/219 13/22/235 12/21/236
s 3
f 113/143/222 112/142/221 12/21/237 11/20/238
s 2
f 114/144/224 113/143/223 11/20/239 10/19/240
s 1
f 107/137/226 114/144/225 10/19/241 9/18/242
