# This file uses centimeters as units for non-parametric coordinates.

mtllib wall.mtl
g default
v -0.254630 -2.546296 2.546296
v 0.254630 -2.546296 2.546296
v -0.256389 2.546066 2.543334
v 0.122977 2.529061 2.324635
v -0.254630 2.546296 -2.546296
v 0.254630 2.546296 -2.546296
v -0.254630 -2.546296 -2.546296
v 0.254630 -2.546296 -2.546296
v -0.408623 -4.547295 4.654747
v 0.679781 -0.008183 3.495216
v 0.331643 4.267559 4.654744
v -0.321615 0.000000 3.216146
v 0.079379 -0.002398 4.654749
v 0.321615 3.216146 0.000000
v -0.547703 4.267561 -4.376254
v -0.321615 3.216146 0.000000
v -0.007547 4.267562 -0.017852
v 0.321615 0.000000 -3.216146
v -0.567722 -4.547295 -4.376255
v -0.321615 0.000000 -3.216146
v -0.175615 -0.003834 -4.376256
v 0.343032 -3.344875 0.201129
v -0.321615 -3.216146 0.000000
v -0.016785 -4.547297 0.026620
v 0.969698 -0.143442 0.558116
v -0.439236 0.000000 0.000000
v -0.341745 -3.481640 3.545771
v 0.221326 -1.831104 4.654750
v -0.155023 -0.000614 4.148567
v -0.299479 -1.510417 2.994792
v -0.020785 -1.681896 4.145511
v -0.046962 -3.500276 3.566861
v 0.505822 -1.526229 3.034264
v 0.214605 -0.001186 4.196399
v 0.364317 -1.699634 4.252186
v 0.299479 1.510417 2.994792
v 0.357004 3.507600 3.525598
v 0.121513 1.824473 4.654747
v 0.233533 1.673044 3.998015
v -0.054469 3.235239 3.243679
v -0.299479 1.510417 2.994792
v -0.097173 1.670521 3.987053
v 0.090393 4.267561 1.986411
v -0.177241 4.267559 -0.004479
v -0.299479 2.994792 1.510417
v -0.138589 3.880411 1.695352
v 0.299479 2.994792 1.510417
v 0.172058 3.946469 -0.007781
v 0.207461 3.929126 1.746018
v 0.664061 3.031250 -1.529598
v -0.054092 3.322879 -3.189199
v -0.102798 4.267563 -1.922157
v 0.146737 3.895824 -1.668115
v -0.378588 3.384854 -3.240661
v -0.299479 2.994792 -1.510417
v -0.177571 3.887407 -1.664418
v -0.229183 1.774355 -4.376256
v -0.280525 0.003175 -4.064408
v -0.299479 1.510417 -2.994792
v -0.283961 1.644167 -3.894423
v 0.299479 1.510417 -2.994792
v 0.023997 0.002690 -4.036329
v 0.038763 1.641012 -3.896030
v 0.704691 -1.598643 -2.569076
v -0.382189 -4.018262 -3.261496
v -0.143029 -1.731301 -4.376256
v 0.071997 -1.626161 -3.837417
v -0.565068 -3.692208 -3.119543
v -0.299479 -1.510417 -2.994792
v -0.243864 -1.622378 -3.886417
v -0.043318 -4.547296 -1.728787
v -0.169906 -4.141125 0.010372
v -0.299479 -2.994792 -1.510417
v -0.169432 -3.909949 -1.621593
v 0.429657 -3.021764 -1.520936
v 0.180435 -4.159455 0.012105
v 0.158819 -3.882296 -1.624875
v 0.299479 -2.994792 1.510417
v -0.123054 -4.547297 2.014894
v 0.098117 -4.086224 1.770197
v -0.299479 -2.994792 1.510417
v -0.214738 -4.030743 1.741446
v 0.409722 -1.753472 0.000000
v 0.533574 -0.069634 1.966955
v 0.747375 -1.808381 1.933461
v 0.797573 -0.000407 -1.767190
v 0.607542 -1.670451 -1.643374
v 0.921628 1.768338 0.226738
v 0.381944 1.631944 -1.631944
v 0.620506 1.642089 1.678222
v -0.409722 -1.753472 0.000000
v -0.409722 0.000000 -1.753472
v -0.381944 -1.631944 -1.631944
v -0.409722 0.000000 1.753472
v -0.381944 -1.631944 1.631944
v -0.409722 1.753472 0.000000
v -0.381944 1.631944 1.631944
v -0.381944 1.631944 -1.631944
vt 0.375000 0.000000
vt 0.437500 0.000000
vt 0.437500 0.062500
vt 0.375000 0.062500
vt 0.500000 0.000000
vt 0.500000 0.062500
vt 0.500000 0.125000
vt 0.437500 0.125000
vt 0.375000 0.125000
vt 0.562500 0.000000
vt 0.562500 0.062500
vt 0.625000 0.000000
vt 0.625000 0.062500
vt 0.625000 0.125000
vt 0.562500 0.125000
vt 0.562500 0.187500
vt 0.500000 0.187500
vt 0.625000 0.187500
vt 0.625000 0.250000
vt 0.562500 0.250000
vt 0.500000 0.250000
vt 0.437500 0.187500
vt 0.375000 0.187500
vt 0.437500 0.250000
vt 0.375000 0.250000
vt 0.437500 0.312500
vt 0.375000 0.312500
vt 0.500000 0.312500
vt 0.500000 0.375000
vt 0.437500 0.375000
vt 0.375000 0.375000
vt 0.562500 0.312500
vt 0.625000 0.312500
vt 0.625000 0.375000
vt 0.562500 0.375000
vt 0.562500 0.437500
vt 0.500000 0.437500
vt 0.625000 0.437500
vt 0.625000 0.500000
vt 0.562500 0.500000
vt 0.500000 0.500000
vt 0.437500 0.437500
vt 0.375000 0.437500
vt 0.437500 0.500000
vt 0.375000 0.500000
vt 0.437500 0.562500
vt 0.375000 0.562500
vt 0.500000 0.562500
vt 0.500000 0.625000
vt 0.437500 0.625000
vt 0.375000 0.625000
vt 0.562500 0.562500
vt 0.625000 0.562500
vt 0.625000 0.625000
vt 0.562500 0.625000
vt 0.562500 0.687500
vt 0.500000 0.687500
vt 0.625000 0.687500
vt 0.625000 0.750000
vt 0.562500 0.750000
vt 0.500000 0.750000
vt 0.437500 0.687500
vt 0.375000 0.687500
vt 0.437500 0.750000
vt 0.375000 0.750000
vt 0.437500 0.812500
vt 0.375000 0.812500
vt 0.500000 0.812500
vt 0.500000 0.875000
vt 0.437500 0.875000
vt 0.375000 0.875000
vt 0.562500 0.812500
vt 0.625000 0.812500
vt 0.625000 0.875000
vt 0.562500 0.875000
vt 0.562500 0.937500
vt 0.500000 0.937500
vt 0.625000 0.937500
vt 0.625000 1.000000
vt 0.562500 1.000000
vt 0.500000 1.000000
vt 0.437500 0.937500
vt 0.375000 0.937500
vt 0.437500 1.000000
vt 0.375000 1.000000
vt 0.687500 0.000000
vt 0.687500 0.062500
vt 0.750000 0.000000
vt 0.750000 0.062500
vt 0.750000 0.125000
vt 0.687500 0.125000
vt 0.812500 0.000000
vt 0.812500 0.062500
vt 0.875000 0.000000
vt 0.875000 0.062500
vt 0.875000 0.125000
vt 0.812500 0.125000
vt 0.812500 0.187500
vt 0.750000 0.187500
vt 0.875000 0.187500
vt 0.875000 0.250000
vt 0.812500 0.250000
vt 0.750000 0.250000
vt 0.687500 0.187500
vt 0.687500 0.250000
vt 0.125000 0.000000
vt 0.187500 0.000000
vt 0.187500 0.062500
vt 0.125000 0.062500
vt 0.250000 0.000000
vt 0.250000 0.062500
vt 0.250000 0.125000
vt 0.187500 0.125000
vt 0.125000 0.125000
vt 0.312500 0.000000
vt 0.312500 0.062500
vt 0.312500 0.125000
vt 0.312500 0.187500
vt 0.250000 0.187500
vt 0.312500 0.250000
vt 0.250000 0.250000
vt 0.187500 0.187500
vt 0.125000 0.187500
vt 0.187500 0.250000
vt 0.125000 0.250000
vn -0.991797 0.053690 0.116004
vn -0.991797 0.053690 0.116004
vn -0.991797 0.053690 0.116004
vn -0.991797 0.053690 0.116004
vn -0.957608 0.170837 0.231952
vn -0.957608 0.170837 0.231952
vn -0.957608 0.170837 0.231952
vn -0.957608 0.170837 0.231952
vn -0.907003 -0.071729 0.414970
vn -0.907003 -0.071729 0.414970
vn -0.907003 -0.071729 0.414970
vn -0.907003 -0.071729 0.414970
vn -0.977053 -0.062193 0.203714
vn -0.977053 -0.062193 0.203714
vn -0.977053 -0.062193 0.203714
vn -0.977053 -0.062193 0.203714
vn 0.960991 -0.241880 0.134130
vn 0.960991 -0.241880 0.134130
vn 0.960991 -0.241880 0.134130
vn 0.960991 -0.241880 0.134130
vn 0.965332 -0.253164 0.063580
vn 0.965332 -0.253164 0.063580
vn 0.965332 -0.253164 0.063580
vn 0.965332 -0.253164 0.063580
vn 0.953645 -0.044676 0.297600
vn 0.953645 -0.044676 0.297600
vn 0.953645 -0.044676 0.297599
vn 0.953645 -0.044676 0.297599
vn 0.944434 0.083125 0.318017
vn 0.944434 0.083125 0.318017
vn 0.944434 0.083125 0.318017
vn 0.944434 0.083125 0.318017
vn 0.976143 -0.004724 0.217075
vn 0.976143 -0.004724 0.217075
vn 0.976143 -0.004724 0.217075
vn 0.976143 -0.004724 0.217075
vn 0.945790 0.167896 0.278015
vn 0.945790 0.167896 0.278015
vn 0.945790 0.167896 0.278015
vn 0.945790 0.167896 0.278015
vn 0.997431 -0.009873 -0.070948
vn 0.997431 -0.009873 -0.070948
vn 0.997431 -0.009873 -0.070948
vn 0.997431 -0.009873 -0.070948
vn 0.991832 -0.065246 0.109596
vn 0.991832 -0.065246 0.109596
vn 0.991832 -0.065246 0.109596
vn 0.991832 -0.065246 0.109596
vn -0.981755 0.046859 0.184287
vn -0.981755 0.046859 0.184287
vn -0.981755 0.046859 0.184287
vn -0.981755 0.046859 0.184287
vn -0.933917 0.043080 0.354885
vn -0.933917 0.043080 0.354885
vn -0.933917 0.043080 0.354885
vn -0.933917 0.043080 0.354885
vn -0.969298 0.102597 0.223461
vn -0.969298 0.102597 0.223461
vn -0.969298 0.102597 0.223461
vn -0.969298 0.102597 0.223461
vn -0.977728 0.113403 0.176599
vn -0.977728 0.113403 0.176599
vn -0.977728 0.113403 0.176599
vn -0.977728 0.113403 0.176599
vn -0.980170 0.160440 0.116297
vn -0.980170 0.160440 0.116297
vn -0.980170 0.160440 0.116297
vn -0.980170 0.160440 0.116297
vn -0.954496 0.274861 0.115707
vn -0.954496 0.274861 0.115707
vn -0.954496 0.274861 0.115707
vn -0.954496 0.274861 0.115707
vn -0.727548 0.679050 0.097803
vn -0.727548 0.679050 0.097803
vn -0.727548 0.679050 0.097803
vn -0.727548 0.679050 0.097803
vn -0.987370 0.151192 0.047355
vn -0.987370 0.151192 0.047355
vn -0.987370 0.151192 0.047355
vn -0.987370 0.151192 0.047355
vn 0.975743 0.208749 -0.065945
vn 0.975743 0.208749 -0.065945
vn 0.975743 0.208749 -0.065945
vn 0.975743 0.208749 -0.065945
vn 0.997806 -0.065132 -0.011909
vn 0.997806 -0.065132 -0.011909
vn 0.997806 -0.065132 -0.011909
vn 0.997806 -0.065132 -0.011909
vn 0.989738 0.142753 0.006416
vn 0.989738 0.142753 0.006416
vn 0.989738 0.142753 0.006416
vn 0.989738 0.142753 0.006416
vn 0.907566 0.418817 -0.030269
vn 0.907566 0.418817 -0.030269
vn 0.907566 0.418817 -0.030269
vn 0.907566 0.418817 -0.030269
vn 0.855704 0.516193 -0.036277
vn 0.855704 0.516193 -0.036277
vn 0.855704 0.516193 -0.036277
vn 0.855704 0.516193 -0.036277
vn 0.918734 0.389891 0.062546
vn 0.918734 0.389891 0.062546
vn 0.918734 0.389891 0.062546
vn 0.918734 0.389891 0.062546
vn 0.895710 0.290603 -0.336532
vn 0.895710 0.290603 -0.336532
vn 0.895710 0.290603 -0.336532
vn 0.895710 0.290603 -0.336532
vn 0.930123 0.310657 -0.195866
vn 0.930123 0.310657 -0.195866
vn 0.930123 0.310657 -0.195866
vn 0.930123 0.310657 -0.195866
vn -0.990588 0.133072 -0.032061
vn -0.990588 0.133072 -0.032061
vn -0.990588 0.133072 -0.032061
vn -0.990588 0.133072 -0.032061
vn -0.851195 0.523808 -0.033042
vn -0.851195 0.523808 -0.033042
vn -0.851195 0.523808 -0.033042
vn -0.851195 0.523808 -0.033042
vn -0.985195 0.088438 0.146865
vn -0.985195 0.088438 0.146865
vn -0.985195 0.088438 0.146865
vn -0.985195 0.088438 0.146865
vn -0.998414 0.023820 0.051018
vn -0.998414 0.023820 0.051018
vn -0.998414 0.023820 0.051018
vn -0.998414 0.023820 0.051018
vn -0.998294 -0.036113 0.045886
vn -0.998294 -0.036113 0.045886
vn -0.998294 -0.036113 0.045886
vn -0.998294 -0.036113 0.045886
vn -0.995105 -0.098445 0.008694
vn -0.995104 -0.098445 0.008694
vn -0.995105 -0.098445 0.008694
vn -0.995104 -0.098445 0.008694
vn -0.980138 -0.006487 -0.198211
vn -0.980138 -0.006487 -0.198211
vn -0.980138 -0.006487 -0.198211
vn -0.980138 -0.006487 -0.198211
vn -0.999452 0.009854 -0.031596
vn -0.999452 0.009854 -0.031596
vn -0.999452 0.009854 -0.031596
vn -0.999452 0.009854 -0.031596
vn 0.932246 0.147770 -0.330274
vn 0.932246 0.147770 -0.330274
vn 0.932247 0.147770 -0.330274
vn 0.932246 0.147770 -0.330274
vn 0.952973 0.158176 -0.258503
vn 0.952973 0.158176 -0.258503
vn 0.952973 0.158176 -0.258503
vn 0.952973 0.158176 -0.258503
vn 0.951399 0.037337 -0.305690
vn 0.951399 0.037337 -0.305690
vn 0.951399 0.037337 -0.305690
vn 0.951399 0.037337 -0.305690
vn 0.870346 0.030069 -0.491522
vn 0.870346 0.030069 -0.491522
vn 0.870346 0.030069 -0.491522
vn 0.870346 0.030069 -0.491522
vn 0.904550 -0.003549 -0.426353
vn 0.904550 -0.003549 -0.426353
vn 0.904550 -0.003549 -0.426353
vn 0.904550 -0.003549 -0.426353
vn 0.913299 0.015302 -0.407001
vn 0.913299 0.015302 -0.407002
vn 0.913299 0.015302 -0.407001
vn 0.913299 0.015302 -0.407001
vn 0.890082 -0.302166 -0.341247
vn 0.890082 -0.302166 -0.341247
vn 0.890082 -0.302166 -0.341247
vn 0.890082 -0.302166 -0.341247
vn 0.969373 -0.181839 -0.165079
vn 0.969373 -0.181839 -0.165079
vn 0.969373 -0.181839 -0.165079
vn 0.969373 -0.181839 -0.165079
vn -0.998220 -0.025577 -0.053883
vn -0.998220 -0.025577 -0.053883
vn -0.998220 -0.025577 -0.053883
vn -0.998220 -0.025577 -0.053883
vn -0.969221 -0.032967 -0.243974
vn -0.969221 -0.032967 -0.243974
vn -0.969221 -0.032967 -0.243974
vn -0.969221 -0.032967 -0.243974
vn -0.983310 0.130165 -0.127120
vn -0.983310 0.130165 -0.127120
vn -0.983310 0.130165 -0.127120
vn -0.983310 0.130165 -0.127120
vn -0.990560 0.116445 0.072323
vn -0.990560 0.116445 0.072323
vn -0.990560 0.116445 0.072323
vn -0.990560 0.116445 0.072323
vn -0.988449 0.037773 0.146774
vn -0.988449 0.037773 0.146774
vn -0.988449 0.037773 0.146774
vn -0.988449 0.037773 0.146774
vn -0.946031 -0.257767 0.196424
vn -0.946031 -0.257767 0.196424
vn -0.946031 -0.257767 0.196424
vn -0.946031 -0.257767 0.196424
vn -0.966183 -0.257656 -0.010151
vn -0.966183 -0.257656 -0.010151
vn -0.966183 -0.257656 -0.010151
vn -0.966183 -0.257656 -0.010151
vn -0.988307 -0.149755 -0.028677
vn -0.988307 -0.149755 -0.028677
vn -0.988307 -0.149755 -0.028677
vn -0.988307 -0.149755 -0.028677
vn 0.968522 -0.070917 -0.238612
vn 0.968522 -0.070918 -0.238612
vn 0.968522 -0.070917 -0.238612
vn 0.968522 -0.070918 -0.238612
vn 0.923497 -0.260462 -0.281626
vn 0.923497 -0.260462 -0.281626
vn 0.923497 -0.260462 -0.281626
vn 0.923497 -0.260462 -0.281626
vn 0.968870 -0.246277 -0.025260
vn 0.968870 -0.246278 -0.025260
vn 0.968870 -0.246277 -0.025260
vn 0.968870 -0.246278 -0.025260
vn 0.935349 -0.351227 -0.041971
vn 0.935349 -0.351227 -0.041971
vn 0.935349 -0.351227 -0.041971
vn 0.935349 -0.351227 -0.041971
vn 0.902092 -0.428179 0.053780
vn 0.902092 -0.428179 0.053780
vn 0.902092 -0.428179 0.053780
vn 0.902092 -0.428179 0.053780
vn 0.980574 -0.184803 0.065742
vn 0.980574 -0.184803 0.065742
vn 0.980574 -0.184803 0.065742
vn 0.980574 -0.184803 0.065742
vn 0.978772 -0.162455 0.124957
vn 0.978772 -0.162455 0.124957
vn 0.978772 -0.162455 0.124957
vn 0.978772 -0.162455 0.124957
vn 0.957783 -0.257905 0.127033
vn 0.957783 -0.257905 0.127033
vn 0.957783 -0.257905 0.127033
vn 0.957783 -0.257905 0.127033
vn -0.992871 -0.119076 0.005235
vn -0.992871 -0.119076 0.005235
vn -0.992871 -0.119076 0.005235
vn -0.992871 -0.119076 0.005235
vn -0.963612 -0.265469 -0.031269
vn -0.963612 -0.265469 -0.031269
vn -0.963612 -0.265469 -0.031269
vn -0.963612 -0.265469 -0.031269
vn -0.992895 -0.086739 -0.081459
vn -0.992895 -0.086739 -0.081459
vn -0.992895 -0.086739 -0.081459
vn -0.992895 -0.086739 -0.081459
vn -0.999615 -0.013816 -0.024063
vn -0.999615 -0.013816 -0.024063
vn -0.999615 -0.013816 -0.024063
vn -0.999615 -0.013816 -0.024063
vn 0.888246 -0.384932 0.250691
vn 0.888246 -0.384932 0.250691
vn 0.888246 -0.384932 0.250691
vn 0.888246 -0.384932 0.250691
vn 0.981675 -0.176021 -0.073010
vn 0.981675 -0.176021 -0.073010
vn 0.981675 -0.176021 -0.073010
vn 0.981675 -0.176021 -0.073010
vn 0.993701 -0.108002 0.029887
vn 0.993701 -0.108002 0.029887
vn 0.993701 -0.108002 0.029887
vn 0.993701 -0.108002 0.029887
vn 0.999352 0.006859 0.035346
vn 0.999352 0.006859 0.035346
vn 0.999352 0.006859 0.035346
vn 0.999352 0.006859 0.035346
vn 0.994400 -0.074392 0.075068
vn 0.994400 -0.074392 0.075068
vn 0.994400 -0.074392 0.075068
vn 0.994400 -0.074392 0.075068
vn 0.956585 -0.268453 -0.113485
vn 0.956585 -0.268453 -0.113485
vn 0.956585 -0.268453 -0.113485
vn 0.956585 -0.268453 -0.113485
vn 0.987390 0.021320 -0.156862
vn 0.987390 0.021320 -0.156862
vn 0.987390 0.021320 -0.156862
vn 0.987390 0.021320 -0.156862
vn 0.975003 -0.222100 -0.006338
vn 0.975003 -0.222100 -0.006338
vn 0.975003 -0.222100 -0.006338
vn 0.975003 -0.222100 -0.006338
vn 0.978877 0.118866 -0.166344
vn 0.978877 0.118866 -0.166344
vn 0.978877 0.118866 -0.166344
vn 0.978877 0.118866 -0.166344
vn 0.967316 0.157306 -0.198885
vn 0.967316 0.157306 -0.198885
vn 0.967316 0.157306 -0.198885
vn 0.967316 0.157306 -0.198885
vn 0.980512 -0.052725 -0.189252
vn 0.980512 -0.052725 -0.189252
vn 0.980512 -0.052725 -0.189252
vn 0.980512 -0.052725 -0.189252
vn 0.991850 0.107777 -0.067957
vn 0.991850 0.107777 -0.067957
vn 0.991850 0.107777 -0.067957
vn 0.991850 0.107777 -0.067957
vn 0.992367 0.105659 0.063591
vn 0.992367 0.105659 0.063591
vn 0.992367 0.105659 0.063591
vn 0.992367 0.105659 0.063591
vn 0.967699 0.032408 0.250018
vn 0.967699 0.032408 0.250018
vn 0.967699 0.032408 0.250018
vn 0.967699 0.032408 0.250018
vn 0.934499 0.327118 0.140380
vn 0.934499 0.327118 0.140380
vn 0.934499 0.327118 0.140380
vn 0.934499 0.327118 0.140380
vn 0.908883 0.294900 0.294900
vn 0.908883 0.294900 0.294900
vn 0.908883 0.294900 0.294900
vn 0.908883 0.294900 0.294900
vn -0.995188 -0.069285 -0.069285
vn -0.995188 -0.069285 -0.069285
vn -0.995188 -0.069285 -0.069285
vn -0.995188 -0.069285 -0.069285
vn -0.997871 -0.061209 -0.022529
vn -0.997871 -0.061209 -0.022529
vn -0.997871 -0.061209 -0.022529
vn -0.997871 -0.061209 -0.022529
vn -0.999692 -0.017548 -0.017548
vn -0.999692 -0.017548 -0.017548
vn -0.999692 -0.017548 -0.017548
vn -0.999692 -0.017548 -0.017548
vn -0.997871 -0.022529 -0.061209
vn -0.997871 -0.022529 -0.061209
vn -0.997871 -0.022529 -0.061209
vn -0.997871 -0.022529 -0.061209
vn -0.997871 -0.061209 0.022529
vn -0.997871 -0.061209 0.022529
vn -0.997871 -0.061209 0.022529
vn -0.997871 -0.061209 0.022529
vn -0.995188 -0.069285 0.069285
vn -0.995188 -0.069285 0.069285
vn -0.995188 -0.069285 0.069285
vn -0.995188 -0.069285 0.069285
vn -0.997871 -0.022529 0.061209
vn -0.997871 -0.022529 0.061209
vn -0.997871 -0.022529 0.061209
vn -0.997871 -0.022529 0.061209
vn -0.999692 -0.017548 0.017548
vn -0.999692 -0.017548 0.017548
vn -0.999692 -0.017548 0.017548
vn -0.999692 -0.017548 0.017548
vn -0.999692 0.017548 0.017548
vn -0.999692 0.017548 0.017548
vn -0.999692 0.017548 0.017548
vn -0.999692 0.017548 0.017548
vn -0.997871 0.022529 0.061209
vn -0.997871 0.022529 0.061209
vn -0.997871 0.022529 0.061209
vn -0.997871 0.022529 0.061209
vn -0.995303 0.068455 0.068455
vn -0.995303 0.068455 0.068455
vn -0.995303 0.068455 0.068455
vn -0.995303 0.068455 0.068455
vn -0.997871 0.061209 0.022529
vn -0.997871 0.061209 0.022529
vn -0.997871 0.061209 0.022529
vn -0.997871 0.061209 0.022529
vn -0.997871 0.022529 -0.061209
vn -0.997871 0.022529 -0.061209
vn -0.997871 0.022529 -0.061209
vn -0.997871 0.022529 -0.061209
vn -0.999692 0.017548 -0.017548
vn -0.999692 0.017548 -0.017548
vn -0.999692 0.017548 -0.017548
vn -0.999692 0.017548 -0.017548
vn -0.997871 0.061209 -0.022529
vn -0.997871 0.061209 -0.022529
vn -0.997871 0.061209 -0.022529
vn -0.997871 0.061209 -0.022529
vn -0.995188 0.069285 -0.069285
vn -0.995188 0.069285 -0.069285
vn -0.995188 0.069285 -0.069285
vn -0.995188 0.069285 -0.069285
s off
g PM3D_wall:Group15799
usemtl PM3D_wall:defaultMat
f 1/1/1 27/2/2 31/3/3 30/4/4
f 27/2/5 9/5/6 28/6/7 31/3/8
f 31/3/9 28/6/10 13/7/11 29/8/12
f 30/4/13 31/3/14 29/8/15 12/9/16
f 9/5/17 32/10/18 35/11/19 28/6/20
f 32/10/21 2/12/22 33/13/23 35/11/24
f 35/11/25 33/13/26 10/14/27 34/15/28
f 28/6/29 35/11/30 34/15/31 13/7/32
f 13/7/33 34/15/34 39/16/35 38/17/36
f 34/15/37 10/14/38 36/18/39 39/16/40
f 39/16/41 36/18/42 4/19/43 37/20/44
f 38/17/45 39/16/46 37/20/47 11/21/48
f 12/9/49 29/8/50 42/22/51 41/23/52
f 29/8/53 13/7/54 38/17/55 42/22/56
f 42/22/57 38/17/58 11/21/59 40/24/60
f 41/23/61 42/22/62 40/24/63 3/25/64
f 3/25/65 40/24/66 46/26/67 45/27/68
f 40/24/69 11/21/70 43/28/71 46/26/72
f 46/26/73 43/28/74 17/29/75 44/30/76
f 45/27/77 46/26/78 44/30/79 16/31/80
f 11/21/81 37/20/82 49/32/83 43/28/84
f 37/20/85 4/19/86 47/33/87 49/32/88
f 49/32/89 47/33/90 14/34/91 48/35/92
f 43/28/93 49/32/94 48/35/95 17/29/96
f 17/29/97 48/35/98 53/36/99 52/37/100
f 48/35/101 14/34/102 50/38/103 53/36/104
f 53/36/105 50/38/106 6/39/107 51/40/108
f 52/37/109 53/36/110 51/40/111 15/41/112
f 16/31/113 44/30/114 56/42/115 55/43/116
f 44/30/117 17/29/118 52/37/119 56/42/120
f 56/42/121 52/37/122 15/41/123 54/44/124
f 55/43/125 56/42/126 54/44/127 5/45/128
f 5/45/129 54/44/130 60/46/131 59/47/132
f 54/44/133 15/41/134 57/48/135 60/46/136
f 60/46/137 57/48/138 21/49/139 58/50/140
f 59/47/141 60/46/142 58/50/143 20/51/144
f 15/41/145 51/40/146 63/52/147 57/48/148
f 51/40/149 6/39/150 61/53/151 63/52/152
f 63/52/153 61/53/154 18/54/155 62/55/156
f 57/48/157 63/52/158 62/55/159 21/49/160
f 21/49/161 62/55/162 67/56/163 66/57/164
f 62/55/165 18/54/166 64/58/167 67/56/168
f 67/56/169 64/58/170 8/59/171 65/60/172
f 66/57/173 67/56/174 65/60/175 19/61/176
f 20/51/177 58/50/178 70/62/179 69/63/180
f 58/50/181 21/49/182 66/57/183 70/62/184
f 70/62/185 66/57/186 19/61/187 68/64/188
f 69/63/189 70/62/190 68/64/191 7/65/192
f 7/65/193 68/64/194 74/66/195 73/67/196
f 68/64/197 19/61/198 71/68/199 74/66/200
f 74/66/201 71/68/202 24/69/203 72/70/204
f 73/67/205 74/66/206 72/70/207 23/71/208
f 19/61/209 65/60/210 77/72/211 71/68/212
f 65/60/213 8/59/214 75/73/215 77/72/216
f 77/72/217 75/73/218 22/74/219 76/75/220
f 71/68/221 77/72/222 76/75/223 24/69/224
f 24/69/225 76/75/226 80/76/227 79/77/228
f 76/75/229 22/74/230 78/78/231 80/76/232
f 80/76/233 78/78/234 2/79/235 32/80/236
f 79/77/237 80/76/238 32/80/239 9/81/240
f 23/71/241 72/70/242 82/82/243 81/83/244
f 72/70/245 24/69/246 79/77/247 82/82/248
f 82/82/249 79/77/250 9/81/251 27/84/252
f 81/83/253 82/82/254 27/84/255 1/85/256
f 2/12/257 78/86/258 85/87/259 33/13/260
f 78/86/261 22/88/262 83/89/263 85/87/264
f 85/87/265 83/89/266 25/90/267 84/91/268
f 33/13/269 85/87/270 84/91/271 10/14/272
f 22/88/273 75/92/274 87/93/275 83/89/276
f 75/92/277 8/94/278 64/95/279 87/93/280
f 87/93/281 64/95/282 18/96/283 86/97/284
f 83/89/285 87/93/286 86/97/287 25/90/288
f 25/90/289 86/97/290 89/98/291 88/99/292
f 86/97/293 18/96/294 61/100/295 89/98/296
f 89/98/297 61/100/298 6/101/299 50/102/300
f 88/99/301 89/98/302 50/102/303 14/103/304
f 10/14/305 84/91/306 90/104/307 36/18/308
f 84/91/309 25/90/310 88/99/311 90/104/312
f 90/104/313 88/99/314 14/103/315 47/105/316
f 36/18/317 90/104/318 47/105/319 4/19/320
f 7/106/321 73/107/322 93/108/323 69/109/324
f 73/107/325 23/110/326 91/111/327 93/108/328
f 93/108/329 91/111/330 26/112/331 92/113/332
f 69/109/333 93/108/334 92/113/335 20/114/336
f 23/110/337 81/115/338 95/116/339 91/111/340
f 81/115/341 1/1/342 30/4/343 95/116/344
f 95/116/345 30/4/346 12/9/347 94/117/348
f 91/111/349 95/116/350 94/117/351 26/112/352
f 26/112/353 94/117/354 97/118/355 96/119/356
f 94/117/357 12/9/358 41/23/359 97/118/360
f 97/118/361 41/23/362 3/25/363 45/120/364
f 96/119/365 97/118/366 45/120/367 16/121/368
f 20/114/369 92/113/370 98/122/371 59/123/372
f 92/113/373 26/112/374 96/119/375 98/122/376
f 98/122/377 96/119/378 16/121/379 55/124/380
f 59/123/381 98/122/382 55/124/383 5/125/384
